<mxfile host="Electron" modified="2023-11-23T07:44:53.067Z" agent="Mozilla/5.0 (Windows NT 10.0; Win64; x64) AppleWebKit/537.36 (KHTML, like Gecko) draw.io/21.7.5 Chrome/114.0.5735.289 Electron/25.8.1 Safari/537.36" etag="q0LWa9gtgbI3ebaII56h" version="21.7.5" type="device">
  <diagram name="第1頁" id="QDxM-NgQnpCNd34k6E9z">
    <mxGraphModel dx="1418" dy="820" grid="1" gridSize="10" guides="1" tooltips="1" connect="1" arrows="1" fold="1" page="1" pageScale="1" pageWidth="3300" pageHeight="4681" math="0" shadow="0">
      <root>
        <mxCell id="0" />
        <mxCell id="1" parent="0" />
        <mxCell id="ck31tNYRUcuOmLsdBi6h-1" value="Function" style="ellipse;whiteSpace=wrap;html=1;" vertex="1" parent="1">
          <mxGeometry x="510" y="190" width="240" height="180" as="geometry" />
        </mxCell>
        <mxCell id="ck31tNYRUcuOmLsdBi6h-2" value="" style="endArrow=classic;html=1;rounded=0;" edge="1" parent="1">
          <mxGeometry relative="1" as="geometry">
            <mxPoint x="430" y="100" as="sourcePoint" />
            <mxPoint x="510" y="190" as="targetPoint" />
          </mxGeometry>
        </mxCell>
        <mxCell id="ck31tNYRUcuOmLsdBi6h-3" value="更多的if-else" style="edgeLabel;resizable=0;html=1;align=center;verticalAlign=middle;" connectable="0" vertex="1" parent="ck31tNYRUcuOmLsdBi6h-2">
          <mxGeometry relative="1" as="geometry">
            <mxPoint y="-5" as="offset" />
          </mxGeometry>
        </mxCell>
        <mxCell id="ck31tNYRUcuOmLsdBi6h-4" value="&lt;h1&gt;if-else 炸裂&lt;/h1&gt;&lt;p&gt;一開始一個方法都是簡單而且單純的，隨著時間演進，加入更多判斷，方法流程的走向越來越不明確，&lt;span style=&quot;background-color: initial;&quot;&gt;參數越加越多，最終導致無人能理解，程式在做什麼&lt;/span&gt;&lt;/p&gt;&lt;p&gt;舉例:要是參數有3個布林值，參數就有2的3次方共8種組合&lt;/p&gt;" style="text;html=1;strokeColor=none;fillColor=none;spacing=5;spacingTop=-20;whiteSpace=wrap;overflow=hidden;rounded=0;" vertex="1" parent="1">
          <mxGeometry x="530" y="500" width="230" height="180" as="geometry" />
        </mxCell>
        <mxCell id="ck31tNYRUcuOmLsdBi6h-5" value="Function" style="ellipse;whiteSpace=wrap;html=1;" vertex="1" parent="1">
          <mxGeometry x="120" y="235" width="130" height="90" as="geometry" />
        </mxCell>
        <mxCell id="ck31tNYRUcuOmLsdBi6h-6" value="" style="endArrow=classic;html=1;rounded=0;" edge="1" parent="1">
          <mxGeometry relative="1" as="geometry">
            <mxPoint x="310" y="279.5" as="sourcePoint" />
            <mxPoint x="410" y="279.5" as="targetPoint" />
          </mxGeometry>
        </mxCell>
        <mxCell id="ck31tNYRUcuOmLsdBi6h-7" value="演變" style="edgeLabel;resizable=0;html=1;align=center;verticalAlign=middle;" connectable="0" vertex="1" parent="ck31tNYRUcuOmLsdBi6h-6">
          <mxGeometry relative="1" as="geometry" />
        </mxCell>
        <mxCell id="ck31tNYRUcuOmLsdBi6h-10" value="" style="endArrow=classic;html=1;rounded=0;" edge="1" parent="1">
          <mxGeometry relative="1" as="geometry">
            <mxPoint x="629.5" y="40" as="sourcePoint" />
            <mxPoint x="629.5" y="140" as="targetPoint" />
          </mxGeometry>
        </mxCell>
        <mxCell id="ck31tNYRUcuOmLsdBi6h-11" value="更多的if-else" style="edgeLabel;resizable=0;html=1;align=center;verticalAlign=middle;" connectable="0" vertex="1" parent="ck31tNYRUcuOmLsdBi6h-10">
          <mxGeometry relative="1" as="geometry">
            <mxPoint y="-5" as="offset" />
          </mxGeometry>
        </mxCell>
        <mxCell id="ck31tNYRUcuOmLsdBi6h-12" value="" style="endArrow=classic;html=1;rounded=0;" edge="1" parent="1">
          <mxGeometry relative="1" as="geometry">
            <mxPoint x="790" y="90" as="sourcePoint" />
            <mxPoint x="740" y="170" as="targetPoint" />
          </mxGeometry>
        </mxCell>
        <mxCell id="ck31tNYRUcuOmLsdBi6h-13" value="更多的if-else" style="edgeLabel;resizable=0;html=1;align=center;verticalAlign=middle;" connectable="0" vertex="1" parent="ck31tNYRUcuOmLsdBi6h-12">
          <mxGeometry relative="1" as="geometry">
            <mxPoint y="-5" as="offset" />
          </mxGeometry>
        </mxCell>
        <mxCell id="ck31tNYRUcuOmLsdBi6h-14" value="" style="endArrow=classic;html=1;rounded=0;" edge="1" parent="1">
          <mxGeometry relative="1" as="geometry">
            <mxPoint x="440" y="430" as="sourcePoint" />
            <mxPoint x="500" y="360" as="targetPoint" />
          </mxGeometry>
        </mxCell>
        <mxCell id="ck31tNYRUcuOmLsdBi6h-15" value="更多的if-else" style="edgeLabel;resizable=0;html=1;align=center;verticalAlign=middle;" connectable="0" vertex="1" parent="ck31tNYRUcuOmLsdBi6h-14">
          <mxGeometry relative="1" as="geometry">
            <mxPoint y="-5" as="offset" />
          </mxGeometry>
        </mxCell>
        <mxCell id="ck31tNYRUcuOmLsdBi6h-16" value="" style="endArrow=classic;html=1;rounded=0;" edge="1" parent="1">
          <mxGeometry relative="1" as="geometry">
            <mxPoint x="820" y="430" as="sourcePoint" />
            <mxPoint x="760" y="360" as="targetPoint" />
          </mxGeometry>
        </mxCell>
        <mxCell id="ck31tNYRUcuOmLsdBi6h-17" value="更多的if-else" style="edgeLabel;resizable=0;html=1;align=center;verticalAlign=middle;" connectable="0" vertex="1" parent="ck31tNYRUcuOmLsdBi6h-16">
          <mxGeometry relative="1" as="geometry">
            <mxPoint y="-5" as="offset" />
          </mxGeometry>
        </mxCell>
        <mxCell id="ck31tNYRUcuOmLsdBi6h-18" value="" style="endArrow=classic;html=1;rounded=0;" edge="1" parent="1">
          <mxGeometry relative="1" as="geometry">
            <mxPoint x="840" y="285" as="sourcePoint" />
            <mxPoint x="960" y="284.5" as="targetPoint" />
          </mxGeometry>
        </mxCell>
        <mxCell id="ck31tNYRUcuOmLsdBi6h-19" value="重購" style="edgeLabel;resizable=0;html=1;align=center;verticalAlign=middle;" connectable="0" vertex="1" parent="ck31tNYRUcuOmLsdBi6h-18">
          <mxGeometry relative="1" as="geometry" />
        </mxCell>
        <mxCell id="ck31tNYRUcuOmLsdBi6h-28" style="edgeStyle=orthogonalEdgeStyle;rounded=0;orthogonalLoop=1;jettySize=auto;html=1;entryX=0;entryY=0.5;entryDx=0;entryDy=0;" edge="1" parent="1" source="ck31tNYRUcuOmLsdBi6h-22" target="ck31tNYRUcuOmLsdBi6h-25">
          <mxGeometry relative="1" as="geometry">
            <Array as="points">
              <mxPoint x="1170" y="285" />
              <mxPoint x="1170" y="110" />
            </Array>
          </mxGeometry>
        </mxCell>
        <mxCell id="ck31tNYRUcuOmLsdBi6h-31" value="分流" style="edgeLabel;html=1;align=center;verticalAlign=middle;resizable=0;points=[];" vertex="1" connectable="0" parent="ck31tNYRUcuOmLsdBi6h-28">
          <mxGeometry x="0.7263" y="2" relative="1" as="geometry">
            <mxPoint y="2" as="offset" />
          </mxGeometry>
        </mxCell>
        <mxCell id="ck31tNYRUcuOmLsdBi6h-29" style="edgeStyle=orthogonalEdgeStyle;rounded=0;orthogonalLoop=1;jettySize=auto;html=1;entryX=0;entryY=0.5;entryDx=0;entryDy=0;" edge="1" parent="1" source="ck31tNYRUcuOmLsdBi6h-22" target="ck31tNYRUcuOmLsdBi6h-26">
          <mxGeometry relative="1" as="geometry" />
        </mxCell>
        <mxCell id="ck31tNYRUcuOmLsdBi6h-32" value="分流" style="edgeLabel;html=1;align=center;verticalAlign=middle;resizable=0;points=[];" vertex="1" connectable="0" parent="ck31tNYRUcuOmLsdBi6h-29">
          <mxGeometry x="0.2364" y="3" relative="1" as="geometry">
            <mxPoint as="offset" />
          </mxGeometry>
        </mxCell>
        <mxCell id="ck31tNYRUcuOmLsdBi6h-30" style="edgeStyle=orthogonalEdgeStyle;rounded=0;orthogonalLoop=1;jettySize=auto;html=1;entryX=0;entryY=0.5;entryDx=0;entryDy=0;" edge="1" parent="1" source="ck31tNYRUcuOmLsdBi6h-22" target="ck31tNYRUcuOmLsdBi6h-27">
          <mxGeometry relative="1" as="geometry">
            <mxPoint x="1200" y="500" as="targetPoint" />
            <Array as="points">
              <mxPoint x="1170" y="285" />
              <mxPoint x="1170" y="440" />
            </Array>
          </mxGeometry>
        </mxCell>
        <mxCell id="ck31tNYRUcuOmLsdBi6h-33" value="分流" style="edgeLabel;html=1;align=center;verticalAlign=middle;resizable=0;points=[];" vertex="1" connectable="0" parent="ck31tNYRUcuOmLsdBi6h-30">
          <mxGeometry x="0.7065" relative="1" as="geometry">
            <mxPoint as="offset" />
          </mxGeometry>
        </mxCell>
        <mxCell id="ck31tNYRUcuOmLsdBi6h-22" value="Function" style="ellipse;whiteSpace=wrap;html=1;" vertex="1" parent="1">
          <mxGeometry x="1010" y="245" width="120" height="80" as="geometry" />
        </mxCell>
        <mxCell id="ck31tNYRUcuOmLsdBi6h-25" value="小Function" style="ellipse;whiteSpace=wrap;html=1;" vertex="1" parent="1">
          <mxGeometry x="1250" y="70" width="120" height="80" as="geometry" />
        </mxCell>
        <mxCell id="ck31tNYRUcuOmLsdBi6h-26" value="小Function" style="ellipse;whiteSpace=wrap;html=1;" vertex="1" parent="1">
          <mxGeometry x="1250" y="245" width="120" height="80" as="geometry" />
        </mxCell>
        <mxCell id="ck31tNYRUcuOmLsdBi6h-27" value="小Function" style="ellipse;whiteSpace=wrap;html=1;" vertex="1" parent="1">
          <mxGeometry x="1250" y="400" width="120" height="80" as="geometry" />
        </mxCell>
      </root>
    </mxGraphModel>
  </diagram>
</mxfile>
